<svg xmlns="http://www.w3.org/2000/svg" width="33.999" height="33.999" viewBox="0 0 33.999 33.999">
  <path id="completed" d="M138,248c-.4-.049-.81-.09-1.213-.148a17.306,17.306,0,0,1-14.536-14.024c-.109-.607-.171-1.221-.255-1.832V230a2.486,2.486,0,0,0,.056-.287,15.371,15.371,0,0,1,1.42-5.523,17.073,17.073,0,0,1,12.694-9.937c.6-.12,1.222-.173,1.834-.257H140c.416.05.832.094,1.246.153a16.724,16.724,0,0,1,8.569,3.834,16.911,16.911,0,0,1,5.933,10.184c.109.607.172,1.222.256,1.833V232a2.5,2.5,0,0,0-.057.29,16.172,16.172,0,0,1-2.585,7.677,17.014,17.014,0,0,1-11.562,7.787c-.595.11-1.2.168-1.8.25Zm-13.881-17.007a14.877,14.877,0,1,0,14.9-14.869h-.035A14.7,14.7,0,0,0,124.124,230.992Zm7.539.044,1.429-1.43,4.129,4.163,7.648-7.648,1.462,1.465-9.06,9.056Z" transform="translate(-122 -214)" fill="#8dc63e"/>
</svg>
