<svg xmlns="http://www.w3.org/2000/svg" width="14.006" height="14.009" viewBox="0 0 14.006 14.009">
  <path id="edit" d="M1198.013,433.007l-.013,2.47a.536.536,0,0,0,.152.38.509.509,0,0,0,.368.152h0l2.462-.013a.509.509,0,0,0,.368-.152l10.5-10.488a.535.535,0,0,0,0-.747l-2.437-2.458a.537.537,0,0,0-.749,0l-1.7,1.71h0l-8.8,8.778A.563.563,0,0,0,1198.013,433.007Zm11.036-9.74,1.713,1.71-.964.963-1.713-1.71Zm-9.983,9.968,8.27-8.258,1.713,1.71-8.27,8.245-1.726.013Z" transform="translate(-1198 -422)" fill="#b3b3b3"/>
</svg>
