<svg xmlns="http://www.w3.org/2000/svg" width="14.949" height="10.664" viewBox="0 0 14.949 10.664">
  <path id="email-address" d="M204.53,384.7c-1.832,0-3.664-.023-5.5.009a1.9,1.9,0,0,1-1.96-1.955c.021-2.256,0-4.513.006-6.769a1.829,1.829,0,0,1,1.587-1.92,2.775,2.775,0,0,1,.437-.019q5.476,0,10.951,0a1.834,1.834,0,0,1,1.962,1.939q.006,2.919,0,5.839c0,.389.015.78-.012,1.167a1.8,1.8,0,0,1-1.841,1.708C208.286,384.706,206.408,384.7,204.53,384.7Zm-6.6-9.319a4.467,4.467,0,0,0-.072.545q-.007,3.414,0,6.828a1.078,1.078,0,0,0,1.2,1.185h6.192q2.439,0,4.878,0a1.065,1.065,0,0,0,1.118-1.106q0-3.454,0-6.907a4.2,4.2,0,0,0-.074-.538c-.1.085-.158.129-.21.176l-5.008,4.469a2.056,2.056,0,0,1-2.8,0q-2.42-2.164-4.843-4.324C198.2,375.612,198.089,375.519,197.932,375.383Zm.6-.478c.07.05.116.076.154.111q2.489,2.219,4.976,4.439a1.26,1.26,0,0,0,1.776,0q2.252-2.007,4.5-4.017c.2-.175.391-.352.591-.531C210.3,374.784,198.88,374.771,198.532,374.905Z" transform="translate(-197.074 -374.048)" fill="#d1d1d1"/>
</svg>
