<svg xmlns="http://www.w3.org/2000/svg" width="34" height="33.999" viewBox="0 0 34 33.999">
  <path id="inprogress" d="M434,248c-.4-.049-.81-.09-1.213-.148a17.306,17.306,0,0,1-14.536-14.024c-.109-.607-.171-1.221-.256-1.832V230a2.312,2.312,0,0,0,.057-.287,15.371,15.371,0,0,1,1.42-5.523,17.073,17.073,0,0,1,12.694-9.937c.6-.12,1.222-.173,1.834-.257H436c.416.05.832.094,1.247.153a16.724,16.724,0,0,1,8.569,3.834,16.911,16.911,0,0,1,5.933,10.184c.109.607.172,1.222.256,1.833V232a2.32,2.32,0,0,0-.057.29,16.172,16.172,0,0,1-2.585,7.677,17.013,17.013,0,0,1-11.562,7.787c-.595.11-1.2.168-1.8.25Zm-13.881-17.007a14.877,14.877,0,1,0,14.9-14.869h-.035A14.7,14.7,0,0,0,420.124,230.992ZM434,236s0-8.734,0-13h2v11h6v2Z" transform="translate(-418 -214)" fill="#f3b113"/>
</svg>
