<svg xmlns="http://www.w3.org/2000/svg" xmlns:xlink="http://www.w3.org/1999/xlink" width="76.571" height="49.649" viewBox="0 0 76.571 49.649">
  <defs>
    <clipPath id="clip-path">
      <path id="Ellipse_3_copy" data-name="Ellipse 3 copy" d="M214.214,209.338a16.494,16.494,0,0,1-1.368-1.4,8.765,8.765,0,0,1-2.014,2.705,10.051,10.051,0,0,1-7.071,2.667H184.918v-.094A2.58,2.58,0,0,1,185,208.06a2.606,2.606,0,0,1,.328.021h18.382a4.531,4.531,0,0,0,3.221-1.283,4.343,4.343,0,0,0,.025-6.287,4.506,4.506,0,0,0-3.246-1.283H190.676a8.246,8.246,0,0,1-7.6-4.276,8.606,8.606,0,0,1-1.209-4.426,8.719,8.719,0,0,1,8.708-8.7h31.75a20.481,20.481,0,0,1,3.462-.282,18.44,18.44,0,0,1,4.749.419,8.575,8.575,0,0,1-.728,1.259,4.168,4.168,0,0,1,.474.569l-.9.45-.358-.386c-.162,0-.259-.135-.292-.3-.752-.749.769,1.313-.246,2.889-.536.833-1.939-.388-2.95-.388a10.912,10.912,0,0,0-8.052,3.421,11.209,11.209,0,0,0-3.372,8.15,10.9,10.9,0,0,0,3.372,8.023,11.033,11.033,0,0,0,8.052,3.345,12.632,12.632,0,0,0,1.767-.122c1.693-.241.5-.1,1.629,1.208.533.62-.676.714.682,1.467-1.128-.654,3.529.864.89,1.64a15.036,15.036,0,0,1-4.263.586A17.128,17.128,0,0,1,214.214,209.338Zm16.069,2.53-.03-.014Zm-42.177-23.9A3.451,3.451,0,0,0,187,190.55a3.507,3.507,0,0,0,1.105,2.633,3.7,3.7,0,0,0,2.663,1.064h13.261a9.78,9.78,0,0,1,5.257,1.363,15.235,15.235,0,0,1,3.857-8.708H190.769A3.7,3.7,0,0,0,188.106,187.967Zm58.052,25.346a16.334,16.334,0,0,1-11.626-4.5,14.8,14.8,0,0,1-4.781-11.243,15.908,15.908,0,0,1,1.761-7.295,15.218,15.218,0,0,1,5.939-6.238,16.579,16.579,0,0,1,8.456-2.213h7.65v-3.583h.093a2.36,2.36,0,0,1,4.72,0h.069v35.074Zm-7.8-23.744a10.609,10.609,0,0,0-3.371,8,9.876,9.876,0,0,0,3.3,7.7,11.7,11.7,0,0,0,8.129,2.967h7.147V186.349h-7A11.442,11.442,0,0,0,238.357,189.569Z" fill="#02aae8"/>
    </clipPath>
  </defs>
  <g id="logo-scd" transform="translate(-181.868 -173.228)">
    <g id="Ellipse_3_copy-2" data-name="Ellipse 3 copy">
      <path id="Ellipse_3_copy-3" data-name="Ellipse 3 copy" d="M214.214,209.338a16.494,16.494,0,0,1-1.368-1.4,8.765,8.765,0,0,1-2.014,2.705,10.051,10.051,0,0,1-7.071,2.667H184.918v-.094A2.58,2.58,0,0,1,185,208.06a2.606,2.606,0,0,1,.328.021h18.382a4.531,4.531,0,0,0,3.221-1.283,4.343,4.343,0,0,0,.025-6.287,4.506,4.506,0,0,0-3.246-1.283H190.676a8.246,8.246,0,0,1-7.6-4.276,8.606,8.606,0,0,1-1.209-4.426,8.719,8.719,0,0,1,8.708-8.7h31.75a20.481,20.481,0,0,1,3.462-.282,18.44,18.44,0,0,1,4.749.419,8.575,8.575,0,0,1-.728,1.259,4.168,4.168,0,0,1,.474.569l-.9.45-.358-.386c-.162,0-.259-.135-.292-.3-.752-.749.769,1.313-.246,2.889-.536.833-1.939-.388-2.95-.388a10.912,10.912,0,0,0-8.052,3.421,11.209,11.209,0,0,0-3.372,8.15,10.9,10.9,0,0,0,3.372,8.023,11.033,11.033,0,0,0,8.052,3.345,12.632,12.632,0,0,0,1.767-.122c1.693-.241.5-.1,1.629,1.208.533.62-.676.714.682,1.467-1.128-.654,3.529.864.89,1.64a15.036,15.036,0,0,1-4.263.586A17.128,17.128,0,0,1,214.214,209.338Zm16.069,2.53-.03-.014Zm-42.177-23.9A3.451,3.451,0,0,0,187,190.55a3.507,3.507,0,0,0,1.105,2.633,3.7,3.7,0,0,0,2.663,1.064h13.261a9.78,9.78,0,0,1,5.257,1.363,15.235,15.235,0,0,1,3.857-8.708H190.769A3.7,3.7,0,0,0,188.106,187.967Zm58.052,25.346a16.334,16.334,0,0,1-11.626-4.5,14.8,14.8,0,0,1-4.781-11.243,15.908,15.908,0,0,1,1.761-7.295,15.218,15.218,0,0,1,5.939-6.238,16.579,16.579,0,0,1,8.456-2.213h7.65v-3.583h.093a2.36,2.36,0,0,1,4.72,0h.069v35.074Zm-7.8-23.744a10.609,10.609,0,0,0-3.371,8,9.876,9.876,0,0,0,3.3,7.7,11.7,11.7,0,0,0,8.129,2.967h7.147V186.349h-7A11.442,11.442,0,0,0,238.357,189.569Z" fill="#02aae8"/>
      <g id="Clip" clip-path="url(#clip-path)">
        <path id="Shape_4" data-name="Shape 4" d="M270.066,169.858s-25.217.206-27.646,8.537-17.945-1.568-12.137,23.139,15.349,16.183,25.623,17.523,21.8-6.066,21.8-6.066Z" fill="#8dc63e"/>
      </g>
    </g>
    <path id="Shape_2" data-name="Shape 2" d="M240.59,220.54c-4.013.031-8.026.019-12.04,0a1.57,1.57,0,0,0-1.441.666,2.615,2.615,0,0,1-3.629.275,2.668,2.668,0,0,1-.059-3.8,2.73,2.73,0,0,1,3.794.257,1.8,1.8,0,0,0,1.161.59c2.344.056,4.692.031,7.038.025.257,0,.514-.049.981-.1-.437-.257-.7-.385-.931-.55a51.879,51.879,0,0,1-4.713-3.361,20.981,20.981,0,0,1-6.827-11.963,4.379,4.379,0,0,0-.6-1.425,3.483,3.483,0,0,1,.279-6.744,7.63,7.63,0,0,0,.325-1.194,21.618,21.618,0,0,1,8.488-13.355c1.124-.84,2.339-1.557,3.614-2.4a2.6,2.6,0,0,0-.5-.127c-2.465-.038-4.931-.088-7.4-.075a1.443,1.443,0,0,0-.909.554,2.564,2.564,0,1,1-3.853-3.359,2.545,2.545,0,0,1,3.742.163,1.648,1.648,0,0,0,1.524.69c4.024-.041,8.047-.1,12.071-.067a3.482,3.482,0,1,1-.087,2.706,17.714,17.714,0,0,0-5.18,2.272,20.589,20.589,0,0,0-9.567,13.165,7.884,7.884,0,0,0-.2,1.219,3.483,3.483,0,0,1,.353,6.249,6.8,6.8,0,0,1-.218.753c.87,6.289,6,13.762,14.951,16.22a3.482,3.482,0,1,1-.174,2.7Zm1.828-1.145a1.463,1.463,0,1,0,1.463-1.462A1.462,1.462,0,0,0,242.418,219.395Zm-19.554-21.568a1.463,1.463,0,1,0,1.463-1.462A1.462,1.462,0,0,0,222.863,197.827Zm19.554-21.117a1.463,1.463,0,1,0,1.463-1.463A1.462,1.462,0,0,0,242.418,176.711Z" fill="#4a2d31"/>
  </g>
</svg>
