<svg xmlns="http://www.w3.org/2000/svg" width="30" height="36" viewBox="0 0 30 36">
  <path id="notassigned" d="M720.645,248c-.239-.076-.483-.14-.718-.229a2.856,2.856,0,0,1-1.9-3.15,19.976,19.976,0,0,1,3.586-9.359,14.828,14.828,0,0,1,7.092-5.537,12.415,12.415,0,0,1,11.584,1.531,17.084,17.084,0,0,1,6.3,8,20.948,20.948,0,0,1,1.382,5.333,3.049,3.049,0,0,1-2.351,3.328,1.876,1.876,0,0,0-.193.078ZM731.8,230.518a11.573,11.573,0,0,0-6.331,2.813,17.245,17.245,0,0,0-5.836,11.281c-.17,1.274.453,1.895,1.785,1.895h23.209a1.576,1.576,0,0,0,1.764-1.887,18.134,18.134,0,0,0-1.77-6.054,14.879,14.879,0,0,0-6.12-6.662,11.052,11.052,0,0,0-5.443-1.456A11.233,11.233,0,0,0,731.8,230.518Zm-2.071,13.039c-.9-1.019-1.785-2.046-2.676-3.069a.725.725,0,0,1,.062-1.14.792.792,0,0,1,1.124.181c.628.7,1.249,1.408,1.874,2.111.094.106.191.211.322.355l2.275-2.569q1.743-1.966,3.484-3.93a.83.83,0,0,1,.9-.329.673.673,0,0,1,.536.64.933.933,0,0,1-.194.573q-3.177,3.6-6.38,7.187a.905.905,0,0,1-.657.36A.917.917,0,0,1,729.725,243.557Zm-3.475-23.343a6.719,6.719,0,0,1,5.782-8.148,1.744,1.744,0,0,0,.239-.067h1.462c.573.146,1.16.251,1.716.443a6.517,6.517,0,0,1,.022,12.385,7.416,7.416,0,0,1-2.495.435A6.847,6.847,0,0,1,726.25,220.214Zm1.367-1.579a5.389,5.389,0,1,0,5.408-5.138h-.062A5.31,5.31,0,0,0,727.618,218.634Z" transform="translate(-718 -212)" fill="#02aae8"/>
</svg>
