<svg xmlns="http://www.w3.org/2000/svg" width="28" height="31" viewBox="0 0 28 31">
  <g id="onhold" transform="translate(-1015 -215)">
    <path id="Op_component_1" data-name="Op component 1" d="M1015,230.441c.11-.711.179-1.431.336-2.131a14.311,14.311,0,0,1,7.156-9.733.941.941,0,0,1,.13-.045l.957,1.93a12.182,12.182,0,0,0-6,7.611,12.511,12.511,0,0,0,.279,7.657,11.909,11.909,0,0,0,11.681,8.065,12.054,12.054,0,0,0,10.9-9,12.6,12.6,0,0,0-6.009-14.341l.973-1.98c.614.4,1.229.76,1.791,1.189a14.473,14.473,0,0,1,5.64,9.538c.067.41.11.824.165,1.237v2.029c-.021.112-.044.223-.062.336-.1.666-.165,1.343-.317,2a14,14,0,0,1-16.144,10.968,14.279,14.279,0,0,1-11.141-11.169c-.144-.7-.226-1.421-.336-2.132Z" fill="#f95b64"/>
    <path id="Op_component_2" data-name="Op component 2" d="M1030.436,229.536h-1.915V215h1.915Z" fill="#f95b64"/>
  </g>
</svg>
