<svg xmlns="http://www.w3.org/2000/svg" width="11.383" height="18.472" viewBox="0 0 11.383 18.472">
  <path id="password" d="M198.5,433.82q0-3.788,0-7.576a1.687,1.687,0,0,1,1.422-1.71v0c0-1.038,0-1.807,0-2.845,0-2.336,1.337-4.538,3.614-4.9a4.184,4.184,0,0,1,4.923,4.191c.016,1.091,0,2.464,0,3.556v0a1.7,1.7,0,0,1,1.423,1.734q0,3.8,0,7.6a1.329,1.329,0,0,1-.306.951,1.251,1.251,0,0,1-.992.377q-3.4,0-6.81,0c-.632,0-1.264,0-1.9,0h-.006C198.93,435.2,198.5,434.768,198.5,433.82Zm.718.661h9.945v-8.522h-9.945Zm4.4-16.984a3.541,3.541,0,0,0-2.993,3.539c-.007,1.084,0,2.879,0,3.963,0,.079.013.158.021.244h7.1c0-.773.006-2.228,0-2.97a15.569,15.569,0,0,0-.062-1.868,3.541,3.541,0,0,0-3.484-2.959A3.282,3.282,0,0,0,203.62,417.5Zm.559,14.368a.571.571,0,0,1-.549-.609c-.01-.188,0-.378,0-.567h0c0-.09-.006-.181,0-.27a.736.736,0,0,0-.247-.659,1.113,1.113,0,0,1,.031-1.595,1.127,1.127,0,0,1,1.557,1.629.635.635,0,0,0-.221.559c.014.3.011.595,0,.892a.574.574,0,0,1-.556.62Z" transform="translate(-198.497 -416.727)" fill="#d1d1d1"/>
</svg>
